<?xml version="1.0" encoding="utf-8"?>
<!-- Generator: Adobe Illustrator 19.0.0, SVG Export Plug-In . SVG Version: 6.00 Build 0)  -->
<svg version="1.1" id="Layer_1" xmlns="http://www.w3.org/2000/svg" xmlns:xlink="http://www.w3.org/1999/xlink" x="0px" y="0px"
	 viewBox="0 0 282 52.3" style="enable-background:new 0 0 282 52.3;" xml:space="preserve">
<style type="text/css">
	.st0{fill:#34495E;}
</style>
<g>
	<path class="st0" d="M20.6,36.1V2.7h12v33.5c0,5.1-1.5,9.1-4.6,11.9c-3.1,2.8-7,4.3-11.7,4.3c-4.8,0-8.7-1.4-11.7-4.2
		C1.5,45.2,0,41.3,0,36.1h11.9c0,1.9,0.5,3.2,1.3,4.1c0.8,0.9,1.8,1.3,3.1,1.3c1.3,0,2.3-0.4,3.1-1.3C20.2,39.4,20.6,38,20.6,36.1z"
		/>
	<path class="st0" d="M61.5,11.4c-1.5,0-2.7,0.4-3.7,1.2c-1,0.8-1.4,1.9-1.4,3.4c0,1.5,0.4,2.7,1.3,3.6c0.9,0.9,2,1.6,3.5,2.1
		c1.4,0.5,3,1,4.8,1.4c1.8,0.4,3.5,1,5.2,1.6c1.7,0.6,3.3,1.4,4.7,2.3c1.4,0.9,2.6,2.3,3.5,4c0.9,1.7,1.3,3.7,1.3,6.1
		c0,4.2-1.7,7.7-5.1,10.7c-3.4,3-7.8,4.4-13.4,4.4s-10-1.3-13.4-4c-3.4-2.7-5.1-6.4-5.1-11.3h12.7c0.3,3.9,2.3,5.9,6,5.9
		c1.7,0,3.1-0.5,4.1-1.4c1-0.9,1.5-2.1,1.5-3.5s-0.4-2.5-1.3-3.4c-0.9-0.9-2-1.6-3.5-2.1c-1.4-0.5-3-1-4.8-1.4
		c-1.8-0.4-3.5-1-5.2-1.6c-1.7-0.7-3.3-1.4-4.7-2.3c-1.4-0.9-2.6-2.2-3.5-3.9c-0.9-1.7-1.3-3.7-1.3-6.1c0-4.6,1.7-8.2,5.1-11
		C52.3,3.3,56.6,2,61.9,2c5.3,0,9.6,1.2,12.8,3.6c3.3,2.4,5,6.2,5.1,11.4h-13c-0.2-1.8-0.8-3.1-1.7-4.1C64.2,11.9,63,11.4,61.5,11.4
		z"/>
	<path class="st0" d="M144.6,2.7h12.9l-13.7,49.1h-13.7l-8.6-31.1l-8.5,31.1H99.2L85.3,2.7h12.8l8.5,35.4l8.8-35.4h13.6l8.4,34.8
		L144.6,2.7z"/>
	<path class="st0" d="M175.2,0v18.5c2.5-4.1,6.4-6.2,11.8-6.2c4.5,0,8.1,1.5,10.9,4.5c2.8,3,4.2,7,4.2,12.2v22.8h-11.9V30.6
		c0-2.5-0.7-4.5-2-5.8c-1.3-1.4-3.2-2.1-5.5-2.1c-2.3,0-4.2,0.7-5.5,2.1c-1.3,1.4-2,3.3-2,5.8v21.2h-12V0H175.2z"/>
	<path class="st0" d="M214.5,46.7c-3.5-3.7-5.2-8.5-5.2-14.4c0-5.8,1.7-10.6,5.2-14.4c3.5-3.8,7.7-5.6,12.6-5.6
		c5,0,8.8,1.8,11.4,5.5v-5.1h12v39.1h-12v-5.7c-2.9,4.1-6.8,6.2-11.6,6.2C222.2,52.3,218,50.4,214.5,46.7z M236,39.4
		c1.7-1.7,2.6-4.1,2.6-7.1c0-3.1-0.9-5.4-2.6-7.1c-1.7-1.7-3.7-2.5-5.9-2.5c-2.2,0-4.2,0.8-6,2.5c-1.7,1.7-2.6,4.1-2.6,7.1
		s0.9,5.4,2.6,7.1c1.7,1.7,3.7,2.5,6,2.5C232.3,41.9,234.3,41.1,236,39.4z"/>
	<path class="st0" d="M277.7,41.6h4.3v10.1h-6.1c-4.4,0-7.8-1-10.2-2.9c-2.4-1.9-3.6-5.3-3.6-10V22.7h-3.6v-9.9h3.6V3.2h12v9.5h7.8
		v9.9H274v16.2C274,40.7,275.3,41.6,277.7,41.6z"/>
</g>
</svg>
